<svg preserveAspectRatio="none" width="100%" height="100%" overflow="visible" style="display: block;" viewBox="0 0 1924 622" fill="none" xmlns="http://www.w3.org/2000/svg">
<path id="Vector 14" d="M1.00018 621C10.4022 619.268 20.3699 618.125 32.8422 615.813C49.7173 612.685 65.2998 609.466 92.965 585.03C111.155 568.963 117.452 558.134 123.284 547.44C131.09 533.127 135.757 522.908 142.147 513.66C148.18 504.929 154.061 496.342 160.726 487.968C169.351 477.132 188.408 465.758 200.372 460.242C210.498 455.573 223.919 446.707 235.867 437.745C247.874 428.739 272.643 430.497 288.843 427.622C299.309 425.765 318.138 425.302 336.535 429.32C351.166 432.515 361.504 442.031 372.87 444.058C387.408 446.65 396.45 447.227 414.172 446.958C428.533 446.741 436.387 436.87 444.716 430.523C456.339 421.665 466.341 417.82 473.845 410.321C480.825 403.347 486.875 394.752 493.265 385.218C499.736 375.564 502.418 365.311 506.861 356.063C511.853 345.672 518.492 334.137 523.776 324.889C529.367 315.103 536.797 306.428 545.109 293.751C562.082 267.865 566.75 256.205 573.415 244.367C578.531 235.281 589.448 225.62 602.786 217.792C623.311 205.746 646.06 199.019 657.983 197.859C669.657 196.723 685.931 191.537 707.015 188.334C729.888 184.858 748.134 187.468 759.99 186.602C801.836 183.546 819.656 194.932 831.055 198.993C843.49 203.423 861.79 211.661 886.743 218.329C904.596 223.1 913.975 220.944 926.722 222.667C941.769 224.701 970.354 226.14 991.354 224.131C1005.36 222.791 1018.25 218.069 1029.63 215.757C1042 213.244 1057.58 211.731 1074.82 204.803C1085.82 200.385 1099.79 200.751 1111.17 197.287C1123.87 193.422 1136.39 190.36 1148.61 186.61C1157.99 183.731 1166.91 179.415 1181.32 165.291C1193.55 153.307 1219 148.241 1232.92 145.037C1247.61 141.655 1262.3 140.136 1324.24 140.119C1350.34 140.112 1365.47 149.35 1406.42 161.724C1423.96 167.022 1433.16 166.668 1476.85 166.971C1489.2 167.057 1499.15 162.668 1516.55 153.48C1527.19 147.862 1540 137.435 1580.56 120.999C1621.12 104.564 1688.67 81.7039 1725.38 68.7844C1774.45 51.521 1788.14 40.3128 1799.54 35.9313C1808.75 32.392 1829.11 32.1732 1848.89 30.7358C1867.44 28.7268 1893.53 22.3883 1906.27 15.7726C1911.87 12.0145 1915.71 7.44247 1923 1.00001" stroke="var(--stroke-0, #D9D9D9)" stroke-width="2" stroke-linecap="round" stroke-dasharray="12 12"/>
</svg>
